<svg width="82" height="65" viewBox="0 0 82 65" fill="none" xmlns="http://www.w3.org/2000/svg">
<path d="M22.1426 2.42859C27.8442 2.42859 33.1057 5.70748 36.9824 11.2098C40.8572 16.7095 43.2861 24.3599 43.2861 32.8573C43.2861 41.3546 40.8572 49.0051 36.9824 54.5048C33.1057 60.007 27.8441 63.286 22.1426 63.286C16.4411 63.2859 11.1794 60.0071 7.30273 54.5048C3.42798 49.0051 1.00003 41.3546 1 32.8573C1 24.36 3.42803 16.7095 7.30273 11.2098C11.1794 5.70751 16.441 2.4287 22.1426 2.42859Z" fill="white" stroke="black" stroke-width="2"/>
<path d="M59.8569 1C65.5585 1 70.82 4.27889 74.6967 9.78125C78.5715 15.2809 81.0004 22.9314 81.0004 31.4287C81.0004 39.926 78.5715 47.5765 74.6967 53.0762C70.82 58.5784 65.5584 61.8574 59.8569 61.8574C54.1553 61.8573 48.8937 58.5785 45.017 53.0762C41.1423 47.5765 38.7143 39.926 38.7143 31.4287C38.7143 22.9314 41.1423 15.2809 45.017 9.78125C48.8937 4.27892 54.1553 1.00011 59.8569 1Z" fill="white" stroke="black" stroke-width="2"/>
<ellipse cx="25.5714" cy="45.1429" rx="8.57143" ry="12.1429" fill="black"/>
<ellipse cx="63.2857" cy="45.1429" rx="8.57143" ry="12.1429" fill="black"/>
</svg>
